# xmcd
#
# Track frame offsets:
#	150
#	17191
#	34618
#	49061
#	68073
#	85979
#	104987
#	122028
#	139455
#	153898
#	172910
#	190816
#	221074
#
# Disc length: 3287 seconds
#
# Revision: 1
# Processed by: cddbd v1.5.2PL0 Copyright (c) Steve Scherf et al.
# Submitted via: audiograbber 1.83.01
#
DISCID=b90cd50d
DTITLE=Various Artist - Lady Antebellum ASK-602 vol 1
DYEAR=1900
DGENRE=Karaoke
TTITLE0=Lady Antebellum - American Honey
TTITLE1=Lady Antebellum - I Run To You
TTITLE2=Lady Antebellum - Lookin' For A Good Time
TTITLE3=Lady Antebellum - Love Don't Live Here
TTITLE4=Lady Antebellum - Need You Now
TTITLE5=Lady Antebellum - Our Kind Of Love
TTITLE6=Lady Antebellum - American Honey (vocals)
TTITLE7=Lady Antebellum - I Run To You (vocals)
TTITLE8=Lady Antebellum - Lookin' For A Good Time (vocals)
TTITLE9=Lady Antebellum - Love Don't Live Here (vocals)
TTITLE10=Lady Antebellum - Need You Now (vocals)
TTITLE11=Lady Antebellum - Our Kind Of Love (vocals)
TTITLE12=Data Track - Data Track
EXTD=
EXTT0=
EXTT1=
EXTT2=
EXTT3=
EXTT4=
EXTT5=
EXTT6=
EXTT7=
EXTT8=
EXTT9=
EXTT10=
EXTT11=
EXTT12=
PLAYORDER=
